<svg width="580" height="407" viewBox="0 0 580 407" fill="none" xmlns="http://www.w3.org/2000/svg">
<path d="M365.435 279.218C382.328 245.01 395.561 234.029 405.133 226.427L435 241L428.5 319C428.155 318.672 427.919 318.408 427.767 318.198C425.989 318.347 420.717 317.776 407 314.5C392.77 312.161 387.091 310.011 385.086 308.629C384.881 309.009 384.536 309.464 384 310C370.19 323.81 334.333 341.333 316.5 347L307.155 328.629C331.227 315.537 350.906 308.639 365.435 279.218Z" fill="#CC3635" stroke="#CC3635"/>
<path d="M518.308 75.5625C528.07 83.3717 517.886 119.202 509.862 141.022C490.551 118.64 454.234 106.076 438.489 102.591C461.295 61.6257 471.008 61.2034 479.877 62.4703C486.972 63.4839 490.998 73.31 492.124 78.0964C495.644 77.2517 509.862 68.8052 518.308 75.5625Z" fill="#CD5213" stroke="#CC6733"/>
<path d="M358.248 156.648L358.673 156.384L358.666 156.374C354.497 150.016 352.784 143.423 353.381 137.117C353.978 130.811 356.889 124.75 362.037 119.463C372.343 108.879 391.616 101.402 419.064 101.401C446.456 101.401 475.702 112.932 498.1 130.49C520.507 148.054 535.969 171.575 535.969 195.502C535.969 202.896 534.573 208.198 532.052 211.947C529.54 215.685 525.871 217.937 521.201 219.163C516.518 220.392 510.849 220.582 504.38 220.197C497.969 219.815 490.811 218.872 483.098 217.838C479.323 213.172 473.275 209.198 466.044 205.857C458.724 202.474 450.147 199.72 441.388 197.55C423.938 193.229 405.702 191.216 395.107 191.201C384.468 185.959 375.372 177.284 368.919 169.887C365.685 166.179 363.121 162.801 361.367 160.349C360.49 159.124 359.815 158.131 359.36 157.445C359.133 157.102 358.96 156.836 358.845 156.656C358.787 156.566 358.744 156.498 358.715 156.452L358.683 156.401L358.675 156.388L358.673 156.385L358.673 156.385C358.673 156.385 358.673 156.385 358.248 156.648Z" fill="#CC6733" stroke="#CC6733"/>
<path d="M464.673 263.496L467.63 271.52H475.231L470.586 277.855L474.387 282.922H467.63L462.562 290.102L460.028 282.078H453.271L457.494 276.165L453.271 271.52H460.028L464.673 263.496Z" fill="#F4B749" stroke="black"/>
<path d="M509.862 336.135C538.242 282.754 498.037 241.253 474.387 227.176C466.592 233.951 451 246 433 240C426.089 237.696 424.06 255.028 424.567 274C425.159 296.205 424.725 320.657 428.5 318.5L472.5 328.5C459 353 422.5 369.5 404 379C393.885 384.194 413.49 394.312 412.735 397.468C412.735 397.468 481.482 389.517 509.862 336.135Z" fill="#CC3635" stroke="#CC3635"/>
<path d="M509.439 337.402L611.641 359.785" stroke="black"/>
<path d="M471.86 329.052L384.017 309.625" stroke="black"/>
<path d="M444.5 253.5L432.5 240L457.5 237L444.5 253.5Z" fill="white"/>
<path d="M412 249.5L427 239L412 231V249.5Z" fill="white"/>
<path d="M444.5 253.5L432.5 240L457.5 237L444.5 253.5Z" stroke="white"/>
<path d="M412 249.5L427 239L412 231V249.5Z" stroke="white"/>
<path d="M492.469 184.099C492.469 215.352 469.208 240.613 440.601 240.613C426.259 240.613 415.003 235.754 407.325 227.039C399.64 218.316 395.49 205.672 395.49 190.012C395.49 174.319 398.227 162.702 403.335 154.339C408.434 145.992 415.923 140.841 425.533 138.125C430.276 136.784 436.834 137.017 444.041 138.646C451.236 140.272 459.028 143.28 466.218 147.438C480.626 155.769 492.469 168.624 492.469 184.099Z" fill="#C6783A" stroke="#C6783A"/>
<line x1="429.697" y1="202.609" x2="440.677" y2="204.299" stroke="black"/>
<circle cx="447.358" cy="188.745" r="4.22322" fill="white"/>
<circle cx="447.358" cy="188.745" r="2.53393" fill="black"/>
<circle cx="419.485" cy="181.987" r="4.22322" fill="white"/>
<circle cx="419.485" cy="181.987" r="2.53393" fill="black"/>
<path d="M477.343 155.381C432.07 170.247 394.849 149.187 381.898 136.799L406.5 148C416.062 138.421 443.617 126.486 477.343 155.381Z" fill="#391924" stroke="#391924"/>
<path d="M494.236 204.371C477.681 192.208 479.454 169.459 482.411 159.604C493.139 167.688 492.941 187.57 491.5 196.5L494.236 204.371Z" fill="#391924" stroke="#391924"/>
<path d="M280.971 340.032C275.565 337.667 296.456 331.445 307.577 328.629C311.13 330.882 317.962 337.667 316.868 346.789C314.053 350.59 307.746 357.939 305.043 356.925C302.515 355.977 305.208 351.015 307.18 348.188C304.322 352.111 298.45 358.836 294.907 358.192C291.191 357.516 297.582 349.464 301.242 345.522C297.723 348.901 289.67 355.489 285.616 354.813C281.562 354.138 290.966 345.522 296.174 341.299C292.092 343.974 283.251 348.985 280.548 347.634C278.67 346.695 282.394 343.525 286.448 340.734C284.886 341.047 283.04 340.937 280.971 340.032Z" fill="#C6783A" stroke="#C6783A"/>
<path d="M381.483 382.687C376.415 379.646 403.444 378.886 403.444 378.886C411.553 383.616 413.298 393.245 413.157 397.468C413.157 397.468 401.332 406.928 397.954 405.914C394.575 404.901 399.362 400.143 402.177 397.89C398.235 400.846 389.254 406.59 384.862 405.914C380.47 405.239 390.352 398.594 395.842 395.356C391.056 397.327 380.639 400.931 377.26 399.579C373.881 398.228 384.58 392.822 390.352 390.288C386.27 391.415 377.091 393.498 373.037 392.822C369.359 392.209 380.465 387.61 388.129 384.765C386.611 384.87 384.396 384.434 381.483 382.687Z" fill="#C6783A" stroke="#C6783A"/>
<path d="M106.388 218.074C123.28 183.865 136.513 172.885 146.086 165.283L175.952 179.856L169.452 257.856C169.107 257.528 168.872 257.264 168.719 257.054C166.942 257.203 161.669 256.632 147.952 253.356C133.723 251.017 128.043 248.867 126.039 247.485C125.833 247.865 125.488 248.32 124.952 248.856C111.142 262.666 75.2857 280.189 57.4524 285.856L48.1071 267.485C72.1794 254.393 91.8583 247.495 106.388 218.074Z" fill="#CC3635"/>
<path d="M146.086 165.283C136.513 172.885 123.28 183.865 106.388 218.074C91.8583 247.495 72.1794 254.393 48.1071 267.485L57.4524 285.856C75.2857 280.189 111.142 262.666 124.952 248.856C131.207 242.601 111.452 247.356 147.952 253.356C181.452 261.356 164.585 253.228 169.452 257.856L175.952 179.856L146.086 165.283Z" stroke="#CC3635"/>
<path d="M259.261 14.4184C269.022 22.2277 258.838 58.0584 250.814 79.8783C231.504 57.4963 195.187 44.9315 179.442 41.4469C202.247 0.481647 211.961 0.0593251 220.829 1.32629C227.924 2.33986 231.95 12.166 233.077 16.9524C236.596 16.1077 250.814 7.66113 259.261 14.4184Z" fill="#CD5213" stroke="#CC6733"/>
<path d="M99.2005 95.5042L99.6254 95.2404L99.6186 95.23C95.4491 88.8715 93.7362 82.2789 94.3333 75.9727C94.9304 69.6665 97.8414 63.6064 102.99 58.3191C113.295 47.7353 132.568 40.2575 160.016 40.2574C187.409 40.2574 216.654 51.7877 239.052 69.3455C261.459 86.9102 276.922 110.431 276.922 134.358C276.922 141.752 275.525 147.054 273.005 150.803C270.492 154.541 266.823 156.793 262.153 158.019C257.471 159.248 251.801 159.438 245.332 159.053C238.921 158.671 231.763 157.728 224.05 156.694C220.275 152.028 214.227 148.054 206.996 144.713C199.676 141.33 191.1 138.576 182.341 136.406C164.89 132.085 146.654 130.072 136.059 130.057C125.421 124.815 116.325 116.14 109.871 108.743C106.637 105.035 104.074 101.657 102.319 99.2054C101.442 97.98 100.767 96.9869 100.313 96.301C100.085 95.9581 99.9127 95.692 99.7975 95.5121C99.7398 95.4222 99.6965 95.3538 99.6677 95.3081L99.6355 95.2568L99.6276 95.2443L99.6258 95.2413L99.6253 95.2406C99.6253 95.2405 99.6253 95.2405 99.2005 95.5042Z" fill="#CC6733" stroke="#CC6733"/>
<path d="M205.626 202.352L208.582 210.376H216.184L211.538 216.711L215.339 221.778H208.582L203.514 228.958L200.98 220.934H194.223L198.446 215.021L194.223 210.376H200.98L205.626 202.352Z" fill="#F4B749" stroke="black"/>
<path d="M250.815 274.991C279.195 221.61 238.99 180.109 215.34 166.032C207.544 172.807 191.952 184.856 173.952 178.856C167.041 176.552 165.013 193.884 165.519 212.856C166.112 235.061 165.678 259.513 169.452 257.356L213.452 267.356C199.952 291.856 163.452 308.356 144.952 317.856C134.838 323.05 154.442 333.168 153.688 336.324C153.688 336.324 222.435 328.373 250.815 274.991Z" fill="#CC3635" stroke="#CC3635"/>
<path d="M250.392 276.258L352.594 298.641" stroke="black"/>
<path d="M212.813 267.907L124.97 248.481" stroke="black"/>
<path d="M185.452 192.356L173.452 178.856L198.452 175.856L185.452 192.356Z" fill="white"/>
<path d="M152.952 188.356L167.952 177.856L152.952 169.856V188.356Z" fill="white"/>
<path d="M185.452 192.356L173.452 178.856L198.452 175.856L185.452 192.356Z" stroke="white"/>
<path d="M152.952 188.356L167.952 177.856L152.952 169.856V188.356Z" stroke="white"/>
<path d="M233.421 122.955C233.421 154.208 210.16 179.469 181.553 179.469C167.212 179.469 155.955 174.61 148.277 165.895C140.592 157.172 136.443 144.528 136.443 128.868C136.443 113.175 139.18 101.558 144.288 93.1952C149.386 84.8479 156.876 79.6968 166.486 76.9809C171.229 75.6404 177.787 75.8729 184.993 77.5019C192.188 79.1284 199.981 82.1361 207.17 86.2935C221.578 94.6252 233.421 107.48 233.421 122.955Z" fill="#C6783A" stroke="#C6783A"/>
<line x1="170.649" y1="141.465" x2="181.629" y2="143.155" stroke="black"/>
<circle cx="188.311" cy="127.601" r="4.22322" fill="white"/>
<circle cx="188.311" cy="127.601" r="2.53393" fill="black"/>
<circle cx="160.437" cy="120.843" r="4.22322" fill="white"/>
<circle cx="160.437" cy="120.843" r="2.53393" fill="black"/>
<path d="M218.295 94.237C173.022 109.103 135.802 88.043 122.851 75.6549L147.452 86.856C157.014 77.2767 184.57 65.3419 218.295 94.237Z" fill="#391924" stroke="#391924"/>
<path d="M235.188 143.227C218.633 131.064 220.407 108.315 223.363 98.4604C234.092 106.544 233.893 126.426 232.452 135.356L235.188 143.227Z" fill="#391924" stroke="#391924"/>
<path d="M21.923 278.888C16.5173 276.523 37.4082 270.301 48.5293 267.485C52.0823 269.738 58.9148 276.523 57.8204 285.645C55.0049 289.446 48.6982 296.795 45.9954 295.781C43.4675 294.833 46.1605 289.871 48.1321 287.044C45.2745 290.967 39.4027 297.692 35.8596 297.048C32.1432 296.372 38.5343 288.32 42.1945 284.378C38.6751 287.757 30.6228 294.345 26.5685 293.669C22.5143 292.994 31.918 284.378 37.1266 280.155C33.0442 282.83 24.2036 287.841 21.5007 286.49C19.6222 285.551 23.3469 282.381 27.4004 279.59C25.8384 279.902 23.9921 279.793 21.923 278.888Z" fill="#C6783A"/>
<path d="M48.5293 267.485C37.4082 270.301 16.5173 276.523 21.923 278.888C27.3287 281.253 31.2141 278.184 32.4811 276.354C27.6948 279.17 18.7978 285.138 21.5007 286.49C24.2036 287.841 33.0442 282.83 37.1266 280.155C31.918 284.378 22.5143 292.994 26.5685 293.669C30.6228 294.345 38.6751 287.757 42.1945 284.378C38.5343 288.32 32.1432 296.372 35.8596 297.048C39.5761 297.724 45.8546 290.291 48.5293 286.49C46.5585 289.165 43.2925 294.767 45.9954 295.781C48.6982 296.795 55.0049 289.446 57.8204 285.645C58.9148 276.523 52.0823 269.738 48.5293 267.485Z" stroke="#C6783A"/>
<path d="M122.436 321.543C117.368 318.502 144.396 317.742 144.396 317.742C152.505 322.472 154.251 332.101 154.11 336.324C154.11 336.324 142.285 345.784 138.906 344.77C135.528 343.757 140.314 338.999 143.129 336.746C139.188 339.702 130.206 345.446 125.814 344.77C121.422 344.095 131.304 337.45 136.795 334.212C132.008 336.183 121.591 339.787 118.212 338.435C114.834 337.084 125.533 331.678 131.304 329.144C127.222 330.271 118.044 332.354 113.989 331.678C110.311 331.065 121.418 326.466 129.081 323.621C127.564 323.726 125.348 323.29 122.436 321.543Z" fill="#C6783A"/>
<path d="M144.396 317.742C144.396 317.742 117.368 318.502 122.436 321.543C127.504 324.583 130.46 323.654 131.304 322.81C123.843 325.484 109.935 331.003 113.989 331.678C118.044 332.354 127.222 330.271 131.304 329.144C125.533 331.678 114.834 337.084 118.212 338.435C121.591 339.787 132.008 336.183 136.795 334.212C131.304 337.45 121.422 344.095 125.814 344.77C130.206 345.446 139.188 339.702 143.129 336.746C140.314 338.999 135.528 343.757 138.906 344.77C142.285 345.784 154.11 336.324 154.11 336.324C154.251 332.101 152.505 322.472 144.396 317.742Z" stroke="#C6783A"/>
<path d="M91.3479 238.252L1.39328 218.403" stroke="black"/>
</svg>
