<svg width="663" height="416" viewBox="0 0 663 416" fill="none" xmlns="http://www.w3.org/2000/svg">
<path d="M416.435 288.218C433.328 254.01 446.561 243.029 456.134 235.427L486 250L479.5 328C479.155 327.672 478.919 327.408 478.767 327.198C476.989 327.347 471.717 326.776 458 323.5C443.771 321.161 438.091 319.011 436.087 317.629C435.881 318.009 435.536 318.464 435 319C421.19 332.81 385.334 350.333 367.5 356L358.155 337.629C382.227 324.537 401.906 317.639 416.435 288.218Z" fill="#EB682A" stroke="#EB682A"/>
<path d="M569.309 84.5625C579.07 92.3717 568.886 128.202 560.862 150.022C541.552 127.64 505.234 115.076 489.49 111.591C512.295 70.6257 522.008 70.2034 530.877 71.4703C537.972 72.4839 541.998 82.31 543.125 87.0964C546.644 86.2518 560.862 77.8052 569.309 84.5625Z" fill="#EE7831"/>
<path d="M587.469 204.502C587.469 234.306 564.971 231.481 533.834 227.307C519.052 208.725 467.055 200.701 445.991 200.701C424.452 190.143 409.248 165.648 409.248 165.648C392.356 139.887 415.019 109.902 470.064 109.901C525.109 109.901 587.469 156.22 587.469 204.502Z" fill="#F4953C"/>
<path d="M515.674 272.496L518.63 280.52H526.232L521.586 286.855L525.387 291.922H518.63L513.562 299.102L511.028 291.078H504.271L508.494 285.165L504.271 280.52H511.028L515.674 272.496Z" fill="#F4B749" stroke="black"/>
<path d="M560.863 345.135C589.243 291.754 549.038 250.253 525.388 236.176C517.592 242.951 502 255 484 249C477.089 246.696 475.061 264.028 475.567 283C476.16 305.205 475.725 329.657 479.5 327.5L523.5 337.5C510 362 473.5 378.5 455 388C444.886 393.194 464.49 403.312 463.735 406.468C463.735 406.468 532.483 398.517 560.863 345.135Z" fill="#EB682A"/>
<path d="M560.44 346.402L662.642 368.785" stroke="black"/>
<path d="M522.86 338.052L435.017 318.625" stroke="black"/>
<path d="M495.5 262.5L483.5 249L508.5 246L495.5 262.5Z" fill="white"/>
<path d="M463 258.5L478 248L463 240V258.5Z" fill="white"/>
<path d="M495.5 262.5L483.5 249L508.5 246L495.5 262.5Z" stroke="white"/>
<path d="M463 258.5L478 248L463 240V258.5Z" stroke="white"/>
<path d="M543.469 193.099C543.469 224.352 520.208 249.613 491.601 249.613C477.26 249.613 466.003 244.754 458.325 236.04C450.64 227.316 446.49 214.672 446.49 199.012C446.49 183.319 449.228 171.702 454.336 163.339C459.434 154.992 466.923 149.841 476.534 147.125C481.277 145.784 487.835 146.017 495.041 147.646C502.236 149.272 510.028 152.28 517.218 156.438C531.626 164.769 543.469 177.624 543.469 193.099Z" fill="#C6783A" stroke="#C6783A"/>
<line x1="480.697" y1="211.609" x2="491.677" y2="213.299" stroke="black"/>
<circle cx="498.358" cy="197.745" r="4.22322" fill="white"/>
<circle cx="498.358" cy="197.745" r="2.53393" fill="black"/>
<circle cx="470.485" cy="190.987" r="4.22322" fill="white"/>
<circle cx="470.485" cy="190.988" r="2.53393" fill="black"/>
<path d="M528.343 164.381C483.07 179.247 445.85 158.187 432.898 145.799L457.5 157C467.062 147.421 494.618 135.486 528.343 164.381Z" fill="#391924" stroke="#391924"/>
<path d="M545.236 213.371C528.681 201.208 530.455 178.459 533.411 168.604C544.14 176.688 543.941 196.57 542.5 205.5L545.236 213.371Z" fill="#391924" stroke="#391924"/>
<path d="M331.971 349.032C326.565 346.667 347.456 340.445 358.577 337.629C362.13 339.882 368.963 346.667 367.868 355.789C365.053 359.59 358.746 366.939 356.043 365.925C353.515 364.977 356.208 360.015 358.18 357.188C355.322 361.111 349.451 367.836 345.907 367.192C342.191 366.516 348.582 358.464 352.242 354.522C348.723 357.901 340.671 364.489 336.616 363.813C332.562 363.138 341.966 354.522 347.174 350.299C343.092 352.974 334.251 357.985 331.549 356.634C329.67 355.695 333.395 352.525 337.448 349.734C335.886 350.046 334.04 349.937 331.971 349.032Z" fill="#C6783A" stroke="#C6783A"/>
<path d="M432.484 391.687C427.416 388.646 454.444 387.886 454.444 387.886C462.553 392.616 464.298 402.245 464.158 406.468C464.158 406.468 452.333 415.928 448.954 414.914C445.576 413.901 450.362 409.143 453.177 406.89C449.236 409.846 440.254 415.59 435.862 414.914C431.47 414.239 441.352 407.594 446.842 404.356C442.056 406.327 431.639 409.931 428.26 408.58C424.882 407.228 435.581 401.822 441.352 399.288C437.27 400.415 428.091 402.498 424.037 401.822C420.359 401.209 431.465 396.61 439.129 393.765C437.611 393.871 435.396 393.434 432.484 391.687Z" fill="#C6783A" stroke="#C6783A"/>
<path d="M121.388 217.074C138.281 182.866 151.514 171.885 161.086 164.283L190.953 178.856L184.453 256.856C184.108 256.528 183.872 256.264 183.72 256.054C181.942 256.203 176.67 255.632 162.953 252.356C148.723 250.017 143.043 247.867 141.039 246.485C140.834 246.865 140.489 247.32 139.953 247.856C126.143 261.666 90.2862 279.189 72.4529 284.856L63.1075 266.485C87.1799 253.393 106.859 246.495 121.388 217.074Z" fill="#009893" stroke="#009893"/>
<path d="M274.261 13.4184C284.023 21.2277 273.839 57.0584 265.815 78.8783C246.504 56.4963 210.187 43.9315 194.442 40.4469C217.248 -0.518353 226.961 -0.940675 235.83 0.326292C242.925 1.33986 246.951 11.166 248.077 15.9524C251.597 15.1077 265.815 6.66113 274.261 13.4184Z" fill="#006E6A"/>
<path d="M292.422 133.357C292.422 163.162 269.924 160.337 238.786 156.163C224.005 137.581 172.008 129.557 150.943 129.557C129.405 118.999 114.201 94.5042 114.201 94.5042C97.3081 68.7425 119.971 38.7576 175.016 38.7573C230.062 38.7573 292.422 85.0764 292.422 133.357Z" fill="#008681"/>
<path d="M220.626 201.352L223.582 209.376H231.184L226.539 215.711L230.34 220.778H223.582L218.515 227.958L215.981 219.934H209.224L213.447 214.021L209.224 209.376H215.981L220.626 201.352Z" fill="#F4B749" stroke="black"/>
<path d="M265.815 273.991C294.195 220.61 253.99 179.109 230.34 165.032C222.544 171.807 206.953 183.856 188.953 177.856C182.042 175.552 180.013 192.884 180.52 211.856C181.112 234.061 180.678 258.513 184.453 256.356L228.453 266.356C214.953 290.856 178.453 307.356 159.953 316.856C149.838 322.05 169.443 332.168 168.688 335.324C168.688 335.324 237.435 327.373 265.815 273.991Z" fill="#009893"/>
<path d="M265 275L404 306" stroke="black"/>
<path d="M227.813 266.908L139.97 247.481" stroke="black"/>
<path d="M200.453 191.356L188.453 177.856L213.453 174.856L200.453 191.356Z" fill="white"/>
<path d="M167.953 187.356L182.953 176.856L167.953 168.856V187.356Z" fill="white"/>
<path d="M200.453 191.356L188.453 177.856L213.453 174.856L200.453 191.356Z" stroke="white"/>
<path d="M167.953 187.356L182.953 176.856L167.953 168.856V187.356Z" stroke="white"/>
<path d="M248.422 121.955C248.422 153.208 225.161 178.469 196.554 178.469C182.212 178.469 170.955 173.61 163.278 164.896C155.593 156.172 151.443 143.528 151.443 127.868C151.443 112.175 154.18 100.558 159.288 92.1953C164.387 83.8479 171.876 78.6968 181.486 75.9809C186.229 74.6404 192.787 74.8729 199.994 76.502C207.189 78.1284 214.981 81.1361 222.171 85.2936C236.579 93.6252 248.422 106.48 248.422 121.955Z" fill="#C6783A" stroke="#C6783A"/>
<line x1="185.65" y1="140.465" x2="196.63" y2="142.155" stroke="black"/>
<circle cx="203.311" cy="126.601" r="4.22322" fill="white"/>
<circle cx="203.311" cy="126.601" r="2.53393" fill="black"/>
<circle cx="175.438" cy="119.843" r="4.22322" fill="white"/>
<circle cx="175.438" cy="119.844" r="2.53393" fill="black"/>
<path d="M233.296 93.2371C188.023 108.103 150.802 87.043 137.851 74.6549L162.453 85.856C172.015 76.2767 199.57 64.3419 233.296 93.2371Z" fill="#391924" stroke="#391924"/>
<path d="M250.189 142.226C233.634 130.064 235.407 107.315 238.364 97.4603C249.092 105.544 248.893 125.426 247.453 134.356L250.189 142.226Z" fill="#391924" stroke="#391924"/>
<path d="M36.9235 277.888C31.5178 275.523 52.4087 269.301 63.5298 266.485C67.0828 268.738 73.9153 275.523 72.8209 284.645C70.0054 288.446 63.6987 295.795 60.9959 294.781C58.468 293.833 61.161 288.871 63.1326 286.044C60.2749 289.967 54.4032 296.692 50.8601 296.048C47.1437 295.372 53.5348 287.32 57.195 283.378C53.6756 286.757 45.6233 293.345 41.569 292.669C37.5147 291.994 46.9185 283.378 52.1271 279.155C48.0446 281.83 39.2041 286.841 36.5012 285.49C34.6227 284.551 38.3473 281.381 42.4009 278.59C40.8389 278.902 38.9926 278.793 36.9235 277.888Z" fill="#C6783A" stroke="#C6783A"/>
<path d="M137.436 320.543C132.368 317.502 159.397 316.742 159.397 316.742C167.506 321.472 169.251 331.101 169.11 335.324C169.11 335.324 157.285 344.784 153.907 343.77C150.528 342.757 155.314 337.999 158.13 335.746C154.188 338.702 145.207 344.446 140.815 343.77C136.423 343.095 146.305 336.45 151.795 333.212C147.009 335.183 136.592 338.787 133.213 337.435C129.834 336.084 140.533 330.678 146.305 328.144C142.222 329.271 133.044 331.354 128.99 330.678C125.312 330.065 136.418 325.466 144.082 322.621C142.564 322.726 140.349 322.29 137.436 320.543Z" fill="#C6783A" stroke="#C6783A"/>
<path d="M108.75 236.252L1.00025 213" stroke="black"/>
</svg>
