<svg width="723" height="542" viewBox="0 0 723 542" fill="none" xmlns="http://www.w3.org/2000/svg">
<path d="M602.991 190.386C612.491 164.553 624.548 122.132 612.991 112.886C602.991 104.886 586.158 114.886 581.991 115.886C580.658 110.22 575.891 98.5863 567.491 97.3863C556.991 95.8863 545.491 96.3863 518.491 144.886" stroke="black"/>
<path d="M423.639 208.795L423.916 208.623L423.909 208.612C418.963 201.069 416.928 193.243 417.637 185.754C418.346 178.264 421.803 171.07 427.911 164.798C440.136 152.243 462.982 143.386 495.492 143.386C527.947 143.386 562.592 157.046 589.123 177.844C615.662 198.648 633.993 226.519 633.993 254.886C633.993 263.651 632.338 269.948 629.34 274.407C626.349 278.855 621.984 281.533 616.439 282.988C610.882 284.447 604.158 284.671 596.495 284.215C588.891 283.763 580.401 282.643 571.256 281.417C566.801 275.897 559.645 271.19 551.075 267.229C542.415 263.227 532.268 259.968 521.901 257.401C501.236 252.283 479.64 249.901 467.108 249.886C454.488 243.673 443.703 233.387 436.056 224.62C432.224 220.228 429.187 216.226 427.109 213.322C426.069 211.87 425.27 210.693 424.731 209.881C424.462 209.474 424.257 209.159 424.12 208.945C424.052 208.839 424.001 208.757 423.966 208.703L423.928 208.642L423.919 208.627L423.917 208.624L423.916 208.623C423.916 208.623 423.916 208.623 423.639 208.795Z" stroke="black"/>
<path d="M505.851 306.886C501.749 336.639 496.435 397.293 507.991 401.886" stroke="black"/>
<path d="M561.991 408.386C550.991 422.72 518.491 455.486 476.491 471.886" stroke="black"/>
<path d="M549.491 335.386L552.991 344.886H561.991L556.491 352.386L560.991 358.386H552.991L546.991 366.886L543.991 357.386H535.991L540.991 350.386L535.991 344.886H543.991L549.491 335.386Z" stroke="black"/>
<path d="M560.992 292.386C588.992 309.053 636.592 358.186 602.992 421.386C569.392 484.586 488 494 488 494" stroke="black"/>
<path d="M602.491 422.886L723.491 449.386" stroke="black"/>
<path d="M558 413L454 390" stroke="black"/>
<path d="M582.491 241.386C582.491 278.43 554.918 308.386 520.991 308.386C503.99 308.386 490.636 302.626 481.526 292.286C472.408 281.937 467.491 266.942 467.491 248.386C467.491 229.798 470.733 216.025 476.793 206.105C482.843 196.2 491.731 190.088 503.127 186.868C508.764 185.275 516.545 185.553 525.084 187.483C533.612 189.411 542.846 192.975 551.366 197.902C568.435 207.772 582.491 223.015 582.491 241.386Z" fill="#FCC85F" stroke="black"/>
<line x1="508.067" y1="263.392" x2="521.067" y2="265.392" stroke="black"/>
<circle cx="528.991" cy="246.886" r="5" fill="white"/>
<circle cx="528.991" cy="246.886" r="3" fill="black"/>
<circle cx="495.991" cy="238.886" r="5" fill="white"/>
<circle cx="495.991" cy="238.886" r="3" fill="black"/>
<line x1="540.375" y1="305.206" x2="525.375" y2="323.206" stroke="black"/>
<path d="M525.5 323.5L511.43 307.833" stroke="black"/>
<path d="M504.5 306.5L487.5 318.5" stroke="black"/>
<line x1="487.491" y1="317.886" x2="487.491" y2="297.886" stroke="black"/>
<path d="M451.491 185.386C466.825 200.053 510.891 224.986 564.491 207.386" stroke="black"/>
<path d="M570.491 212.386C566.991 224.053 564.891 250.986 584.491 265.386" stroke="black"/>
<path d="M363.5 412.5C350.333 415.833 325.6 423.2 332 426C338.4 428.8 343 425.167 344.5 423C338.833 426.333 328.3 433.4 331.5 435C334.7 436.6 345.167 430.667 350 427.5C343.833 432.5 332.7 442.7 337.5 443.5C342.3 444.3 351.833 436.5 356 432.5C351.667 437.167 344.1 446.7 348.5 447.5C352.9 448.3 360.333 439.5 363.5 435C361.167 438.167 357.3 444.8 360.5 446C363.7 447.2 371.167 438.5 374.5 434" stroke="black"/>
<path d="M477 472C465.833 472 445 472.9 451 476.5C457 480.1 460.5 479 461.5 478C452.667 481.167 436.2 487.7 441 488.5C445.8 489.3 456.667 486.833 461.5 485.5C454.667 488.5 442 494.9 446 496.5C450 498.1 462.333 493.833 468 491.5C461.5 495.333 449.8 503.2 455 504C460.2 504.8 470.833 498 475.5 494.5C472.167 497.167 466.5 502.8 470.5 504C474.5 505.2 482.5 498 488.5 494" stroke="black"/>
<path d="M374.5 434C374.667 429.333 372.7 418.5 363.5 412.5" stroke="black"/>
<path d="M488.5 493.5C488.667 488.833 486.2 478 477 472" stroke="black"/>
<path d="M453.883 390C453.217 386.333 452.283 376.2 453.883 365" stroke="black"/>
<path d="M454 390C444.833 400.5 416.3 423.9 375.5 433.5" stroke="black"/>
<path d="M479 291.5C467.667 300.5 452 313.5 432 354C414.799 388.833 391.5 397 363 412.5" stroke="black"/>
<path d="M296.084 116.386C305.584 90.5531 317.641 48.1321 306.084 38.8865C296.084 30.8863 279.251 40.8865 275.084 41.8865C273.751 36.2198 268.984 24.5863 260.584 23.3863C250.084 21.8863 238.584 22.3863 211.584 70.8863" stroke="black"/>
<path d="M116.731 134.795L117.009 134.623L117.002 134.612C112.056 127.069 110.021 119.243 110.73 111.754C111.439 104.264 114.896 97.0704 121.004 90.7976C133.229 78.2427 156.075 69.3862 188.585 69.386C221.04 69.386 255.684 83.0462 282.215 103.844C308.755 124.648 327.085 152.519 327.085 180.886C327.085 189.651 325.43 195.948 322.432 200.407C319.442 204.855 315.077 207.533 309.532 208.988C303.974 210.447 297.251 210.671 289.588 210.215C281.984 209.763 273.494 208.643 264.349 207.417C259.894 201.897 252.738 197.19 244.168 193.229C235.508 189.227 225.361 185.968 214.994 183.401C194.329 178.283 172.733 175.901 160.2 175.886C147.581 169.673 136.796 159.387 129.148 150.62C125.317 146.228 122.28 142.226 120.201 139.322C119.162 137.87 118.363 136.693 117.824 135.881C117.554 135.474 117.35 135.159 117.213 134.945C117.145 134.839 117.093 134.757 117.059 134.703L117.021 134.642L117.012 134.627L117.009 134.624L117.009 134.623C117.009 134.623 117.009 134.623 116.731 134.795Z" stroke="black"/>
<path d="M198.944 232.886C194.842 262.639 189.528 323.293 201.084 327.886" stroke="black"/>
<path d="M255.084 334.386C244.084 348.72 211.584 381.486 169.584 397.886" stroke="black"/>
<path d="M242.584 261.386L246.084 270.886H255.084L249.584 278.386L254.084 284.386H246.084L240.084 292.886L237.084 283.386H229.084L234.084 276.386L229.084 270.886H237.084L242.584 261.386Z" stroke="black"/>
<path d="M254.085 218.386C282.085 235.053 329.685 284.186 296.085 347.386C262.485 410.586 181.093 420 181.093 420" stroke="black"/>
<path d="M295.584 348.886L416.584 375.386" stroke="black"/>
<path d="M251 339L147 316" stroke="black"/>
<path d="M275.584 167.386C275.584 204.43 248.01 234.386 214.084 234.386C197.083 234.386 183.729 228.626 174.619 218.286C165.501 207.937 160.584 192.942 160.584 174.386C160.584 155.798 163.826 142.025 169.886 132.105C175.936 122.2 184.823 116.088 196.22 112.868C201.856 111.275 209.638 111.553 218.177 113.483C226.705 115.411 235.939 118.975 244.459 123.902C261.527 133.772 275.584 149.015 275.584 167.386Z" fill="#FCC85F" stroke="black"/>
<line x1="201.16" y1="189.392" x2="214.16" y2="191.392" stroke="black"/>
<circle cx="222.084" cy="172.886" r="5" fill="white"/>
<circle cx="222.084" cy="172.886" r="3" fill="black"/>
<circle cx="189.084" cy="164.886" r="5" fill="white"/>
<circle cx="189.084" cy="164.886" r="3" fill="black"/>
<line x1="233.468" y1="231.206" x2="218.468" y2="249.206" stroke="black"/>
<path d="M218.593 249.5L204.522 233.833" stroke="black"/>
<path d="M197.593 232.5L180.593 244.5" stroke="black"/>
<line x1="180.584" y1="243.886" x2="180.584" y2="223.886" stroke="black"/>
<path d="M144.584 111.386C159.917 126.053 203.984 150.986 257.584 133.386" stroke="black"/>
<path d="M263.584 138.386C260.084 150.053 257.984 176.986 277.584 191.386" stroke="black"/>
<path d="M56.5928 338.5C43.4261 341.833 18.6928 349.2 25.0928 352C31.4928 354.8 36.0928 351.167 37.5928 349C31.9261 352.333 21.3928 359.4 24.5928 361C27.7928 362.6 38.2595 356.667 43.0928 353.5C36.9261 358.5 25.7928 368.7 30.5928 369.5C35.3928 370.3 44.9261 362.5 49.0928 358.5C44.7595 363.167 37.1928 372.7 41.5928 373.5C45.9928 374.3 53.4261 365.5 56.5928 361C54.2595 364.167 50.3928 370.8 53.5928 372C56.7928 373.2 64.2595 364.5 67.5928 360" stroke="black"/>
<path d="M170.093 398C158.926 398 138.093 398.9 144.093 402.5C150.093 406.1 153.593 405 154.593 404C145.759 407.167 129.293 413.7 134.093 414.5C138.893 415.3 149.759 412.833 154.593 411.5C147.759 414.5 135.093 420.9 139.093 422.5C143.093 424.1 155.426 419.833 161.093 417.5C154.593 421.333 142.893 429.2 148.093 430C153.293 430.8 163.926 424 168.593 420.5C165.259 423.167 159.593 428.8 163.593 430C167.593 431.2 175.593 424 181.593 420" stroke="black"/>
<path d="M67.5928 360C67.7595 355.333 65.7928 344.5 56.5928 338.5" stroke="black"/>
<path d="M181.593 419.5C181.759 414.833 179.293 404 170.093 398" stroke="black"/>
<path d="M146.883 316C146.217 312.333 145.283 302.2 146.883 291" stroke="black"/>
<path d="M147.093 316C137.926 326.5 109.393 349.9 68.5928 359.5" stroke="black"/>
<path d="M172.093 217.5C160.76 226.5 145.093 239.5 125.093 280C107.891 314.833 84.5929 323 56.0929 338.5" stroke="black"/>
<path d="M107.5 305.5L1.00001 282" stroke="black"/>
</svg>
